# xmcd
#
# Track frame offsets:
#	150
#	24700
#	45404
#	67546
#	89668
#	110395
#	136473
#	153259
#	169696
#	191232
#
# Disc length: 2864 seconds
#
# Revision: 0
# Processed by: cddbd v1.5.2PL0 Copyright (c) Steve Scherf et al.
# Submitted via: EZCDAudioConverter 2.3.2.1
#
DISCID=7d0b2e0a
DTITLE=강허달림 - Beyond the Blues
DYEAR=2015
DGENRE=Blues
TTITLE0=외로운 사람들
TTITLE1=이슬비
TTITLE2=기슭으로 가는 배
TTITLE3=어떤 하루
TTITLE4=밤 눈
TTITLE5=골목길(feat. 박광선)
TTITLE6=거리
TTITLE7=열아홉이에요
TTITLE8=이젠 한마디 해볼까
TTITLE9=내 마음 갈 곳을 읽어
EXTD=
EXTT0=
EXTT1=
EXTT2=
EXTT3=
EXTT4=
EXTT5=
EXTT6=
EXTT7=
EXTT8=
EXTT9=
PLAYORDER=
